# xmcd
# Copyright (C) 1995-1998 Ti Kan
#
# Track frame offsets:
#       150
#       87437
#       142464
#       199954
#
# Disc length: 3527 seconds
#
# Revision: 0
# Processed by: cddbd v1.5.2PL0 Copyright (c) Steve Scherf et al.
# Submitted via: CD-Transfer v1.0
#
DISCID=3e0dc504
DTITLE=Friday Night Life Mixed By Dj René - 
DYEAR=1900
DGENRE=
TTITLE0=House
TTITLE1=Latin
TTITLE2=90 To House
TTITLE3=Pop
EXTD=
EXTT0=
EXTT1=
EXTT2=
EXTT3=
PLAYORDER=
